<svg xmlns="http://www.w3.org/2000/svg" viewBox="0 0 100 125" x="0px" y="0px"><title>abduction, ufo, alien, cow</title><g><path d="M78.47707,17.71143a59.215,59.215,0,0,0-13.203-3.165C64.69043,10.07816,59.79472,4.2,50,4.2S35.3096,10.07816,34.726,14.54646a59.21482,59.21482,0,0,0-13.203,3.165c-2.99693,1.092-9.049,3.52909-9.04458,6.7247.01262,1.54971.02832,3.55579-.00015,5.09971-.0286,1.57241,2.57821,5.281,27.09418,6.0397a10.05894,10.05894,0,0,0,1.81541,4.31379c-3.78753,4.07546-1.74058,7.12942-4.5385,12.43645-2.91992,5.54048-5.78487,4.259-8.97588,10.31377-3.16257,5.99873-.46593,5.46338-3.372,10.97617C21.56131,79.19268,16.746,78.924,16.746,86.304c0,6.16787,17.1333,9.496,33.254,9.496s33.254-3.32813,33.254-9.496c0-7.41208-4.80315-7.087-7.75547-12.68828-2.92872-5.55581-.18591-4.93291-3.37187-10.976-3.19318-6.05892-6.05157-4.76495-8.97608-10.31416-2.78463-5.28184-.755-8.3656-4.53879-12.43667a10.17107,10.17107,0,0,0,1.83158-4.39014C84.37708,34.557,87.139,30.69893,87.44963,29.92754A1.00116,1.00116,0,0,0,87.522,29.554V24.428C87.522,22.1582,84.47883,19.89834,78.47707,17.71143ZM70.352,20.818a1.5,1.5,0,1,1-1.5,1.5A1.50055,1.50055,0,0,1,70.352,20.818ZM50,6.2c10.31225,0,13.334,6.64564,13.334,9.26074C63.26688,17.78412,54.532,19.59805,50,19.59805c-4.57213,0-13.29015-1.83324-13.334-4.12608C36.666,12.78823,39.75511,6.2,50,6.2Zm1.914,18.964a1.5,1.5,0,1,1-1.5-1.5A1.49928,1.49928,0,0,1,51.914,25.164ZM29.648,20.818a1.5,1.5,0,1,1-1.5,1.5A1.50055,1.50055,0,0,1,29.648,20.818ZM61.364,68.33c1.266-.24,3.172-.788,4.716.484a3.7597,3.7597,0,0,1,1.244,3.07.8.8,0,1,1-1.6,0,2.26363,2.26363,0,0,0-.662-1.836,2.85151,2.85151,0,0,0-2.05-.408l-.01.002c-.042.768-.546,2.036-2.854,3.542a7.31611,7.31611,0,0,0-1.04378.83448A15.37189,15.37189,0,0,1,60.49,78.268c.308,1.968.056,3.778-1.248,4.608-.812.516-2.428.152-1.898-1.246.5298-1.39946-.63311-4.30774-.634-4.30989C55.39714,79.6647,54.40374,82.038,52.532,82.634c-1.202.382-3.214-.684-1.858-1.618.832-.576,1.158-2.43,1.256-3.438a1.90819,1.90819,0,0,0-1.28-2.022,12.99808,12.99808,0,0,1-5.7-4.334,1.92936,1.92936,0,0,0-.52078-.45454c-.05691.1049-2.92057,5.57463-5.65122,5.62653-1.464.026-1.908-.844-1.098-1.398a3.88608,3.88608,0,0,0,1.912-3.308,45.614,45.614,0,0,1-4.938,1.026c-1.122-.07-2.034-.834-1.492-1.5,0,0,7.632-2.044,9.336-7.844a4.64548,4.64548,0,0,0-2.852.046,1.62735,1.62735,0,0,1-1.854-.584,4.98185,4.98185,0,0,1-.62-1.114,1.61741,1.61741,0,0,1,.454-1.792,33.27537,33.27537,0,0,1,4.6092-3.42317,3.99066,3.99066,0,0,1-.53594-1.69492.8.8,0,0,1,1.59727-.09336,2.35228,2.35228,0,0,0,.41137,1.11489A2.23735,2.23735,0,0,1,44.5,55.718a2.57178,2.57178,0,0,1,1.6217.7617c.56123-.00686.86732-.13731.91389-.25645a.8.8,0,1,1,1.49043.58164,1.90588,1.90588,0,0,1-1.36307,1.1419c.152.28037.29769.572.44307.86626l-.014.007A5.55846,5.55846,0,0,0,50,61.848c-.908.078-1.554.934-1.992,1.862a1.87052,1.87052,0,0,0,.83,2.418c.398.228.652.746.422,1.832-.588,2.794,2.904,2.538,2.904,2.538,2.594-.026,3.502-5.074,3.502-5.074C57.79,66.622,59.918,67.71,61.364,68.33ZM41.63455,35.63059c5.30228.11965,11.41738.1075,16.7445-.05847a6.532,6.532,0,0,1-1.82015,3.57827C55.23967,40.29424,53.07121,40.524,50,40.524c-3.07256,0-5.24141-.22968-6.559-1.37373A6.45684,6.45684,0,0,1,41.63455,35.63059Zm43.88744-6.42c-.28512.269-4.46216,4.49941-36.608,4.49941-24.52076,0-33.12607-2.56833-34.42969-4.306.01248-.50207.01211-1.60087.008-2.65236C21.2038,30.3853,41.22215,30.584,48.914,30.584c8.19044,0,29.24558-.26137,36.608-4.1175Z"/><path d="M42.17365,14.60918a.9986.9986,0,0,0,1.16553-.80088,4.81779,4.81779,0,0,1,3.68554-4.12725A1,1,0,1,0,46.41926,7.775a6.7627,6.7627,0,0,0-5.04649,5.66865A1,1,0,0,0,42.17365,14.60918Z"/></g></svg>